<mxfile host="Electron" agent="Mozilla/5.0 (Windows NT 10.0; Win64; x64) AppleWebKit/537.36 (KHTML, like Gecko) draw.io/26.0.9 Chrome/128.0.6613.186 Electron/32.2.5 Safari/537.36" version="26.0.9">
  <diagram name="Page-1" id="90a13364-a465-7bf4-72fc-28e22215d7a0">
    <mxGraphModel dx="3254.5" dy="713" grid="1" gridSize="10" guides="1" tooltips="1" connect="1" arrows="1" fold="1" page="1" pageScale="1.5" pageWidth="1169" pageHeight="827" background="#ffffff" math="0" shadow="0">
      <root>
        <mxCell id="0" style=";html=1;" />
        <mxCell id="1" style=";html=1;" parent="0" />
        <mxCell id="aC57QmPyYTqG6Asludqg-9" value="" style="rounded=0;whiteSpace=wrap;html=1;fontSize=16;" parent="1" vertex="1">
          <mxGeometry x="-20" y="350" width="740" height="710" as="geometry" />
        </mxCell>
        <mxCell id="zSoxXOAhGFOt2usmLHU0-1" value="" style="rounded=0;whiteSpace=wrap;html=1;fillColor=none;dashed=1;strokeWidth=2;" parent="1" vertex="1">
          <mxGeometry y="370" width="700" height="480" as="geometry" />
        </mxCell>
        <mxCell id="zSoxXOAhGFOt2usmLHU0-2" value="" style="rounded=0;whiteSpace=wrap;html=1;fillColor=none;dashed=1;strokeWidth=2;" parent="1" vertex="1">
          <mxGeometry y="850" width="700" height="190" as="geometry" />
        </mxCell>
        <mxCell id="9j5Bc3N9rgv02oG_bQQu-1" value="&lt;b&gt;&lt;font style=&quot;font-size: 20px&quot;&gt;MQTT Server&lt;/font&gt;&lt;/b&gt;" style="ellipse;shape=cloud;whiteSpace=wrap;html=1;" parent="1" vertex="1">
          <mxGeometry x="87.5" y="80" width="523" height="170" as="geometry" />
        </mxCell>
        <mxCell id="J8ns3n-xOa6iXa_PQh_Z-5" style="edgeStyle=orthogonalEdgeStyle;rounded=0;orthogonalLoop=1;jettySize=auto;html=1;exitX=0.5;exitY=0;exitDx=0;exitDy=0;entryX=0;entryY=0.5;entryDx=0;entryDy=0;" parent="1" target="9j5Bc3N9rgv02oG_bQQu-30" edge="1">
          <mxGeometry relative="1" as="geometry">
            <mxPoint x="100" y="672" as="sourcePoint" />
          </mxGeometry>
        </mxCell>
        <mxCell id="9j5Bc3N9rgv02oG_bQQu-24" value="&lt;div&gt;&lt;span style=&quot;background-color: rgb(255, 255, 51);&quot;&gt;Manufacturing Part #&lt;/span&gt;&lt;/div&gt;Pushbutton" style="rounded=0;whiteSpace=wrap;html=1;" parent="1" vertex="1">
          <mxGeometry x="10" y="520" width="120" height="60" as="geometry" />
        </mxCell>
        <mxCell id="9j5Bc3N9rgv02oG_bQQu-47" value="" style="group;strokeWidth=1;" parent="1" vertex="1" connectable="0">
          <mxGeometry x="240" y="563" width="280" height="190" as="geometry" />
        </mxCell>
        <mxCell id="9j5Bc3N9rgv02oG_bQQu-6" value="&lt;div&gt;Microchip&lt;/div&gt;&lt;div&gt;&lt;font face=&quot;arial&quot;&gt;&lt;span style=&quot;font-size: 13.3333px;&quot;&gt;ESP32 Wifi Module&lt;/span&gt;&lt;/font&gt;&lt;/div&gt;" style="rounded=0;whiteSpace=wrap;html=1;strokeWidth=2;fillColor=#E6E6E6;" parent="9j5Bc3N9rgv02oG_bQQu-47" vertex="1">
          <mxGeometry x="-30" y="-80" width="280" height="250" as="geometry" />
        </mxCell>
        <mxCell id="9j5Bc3N9rgv02oG_bQQu-29" value="&lt;div&gt;DI&lt;/div&gt;&lt;span style=&quot;background-color: rgb(255 , 255 , 51)&quot;&gt;RXY&lt;/span&gt;" style="rounded=0;whiteSpace=wrap;html=1;" parent="9j5Bc3N9rgv02oG_bQQu-47" vertex="1">
          <mxGeometry x="-30" y="21" width="80" height="40" as="geometry" />
        </mxCell>
        <mxCell id="9j5Bc3N9rgv02oG_bQQu-30" value="&lt;div&gt;&lt;span style=&quot;color: light-dark(rgb(0, 0, 0), rgb(255, 255, 255)); background-color: rgb(251, 251, 251);&quot;&gt;12C&lt;/span&gt;&lt;/div&gt;&lt;div&gt;&lt;span style=&quot;background-color: light-dark(rgb(255, 255, 51), rgb(255, 255, 51)); color: light-dark(rgb(0, 0, 0), rgb(255, 255, 255));&quot;&gt;RXY&lt;/span&gt;&lt;br&gt;&lt;/div&gt;" style="rounded=0;whiteSpace=wrap;html=1;" parent="9j5Bc3N9rgv02oG_bQQu-47" vertex="1">
          <mxGeometry x="-30" y="60" width="80" height="40" as="geometry" />
        </mxCell>
        <mxCell id="S8yp5X4-lJhxRksTFqpk-17" value="&lt;span style=&quot;background-color: rgb(255, 255, 0);&quot;&gt;Bruce Myers&lt;/span&gt;" style="text;html=1;strokeColor=none;fillColor=none;align=left;verticalAlign=middle;whiteSpace=wrap;rounded=0;dashed=1;" parent="9j5Bc3N9rgv02oG_bQQu-47" vertex="1">
          <mxGeometry x="-20" y="170" width="120" height="20" as="geometry" />
        </mxCell>
        <mxCell id="9j5Bc3N9rgv02oG_bQQu-42" value="&lt;div&gt;publish&lt;/div&gt;EGR314_Team309" style="rounded=0;whiteSpace=wrap;html=1;" parent="9j5Bc3N9rgv02oG_bQQu-47" vertex="1">
          <mxGeometry x="-30" y="-80" width="120" height="30" as="geometry" />
        </mxCell>
        <mxCell id="9j5Bc3N9rgv02oG_bQQu-49" value="&lt;div&gt;subscribe&lt;/div&gt;&lt;span style=&quot;background-color: rgb(255 , 255 , 51)&quot;&gt;TBD&lt;/span&gt;" style="rounded=0;whiteSpace=wrap;html=1;" parent="9j5Bc3N9rgv02oG_bQQu-47" vertex="1">
          <mxGeometry x="130" y="-80" width="120" height="30" as="geometry" />
        </mxCell>
        <mxCell id="kSPQpByRb165gBiSEDPV-8" value="" style="rounded=0;whiteSpace=wrap;html=1;" vertex="1" parent="9j5Bc3N9rgv02oG_bQQu-47">
          <mxGeometry x="130" y="-10" width="120" height="37" as="geometry" />
        </mxCell>
        <mxCell id="kSPQpByRb165gBiSEDPV-9" value="USB C Programmer Plugin" style="text;html=1;align=center;verticalAlign=middle;whiteSpace=wrap;rounded=0;" vertex="1" parent="9j5Bc3N9rgv02oG_bQQu-47">
          <mxGeometry x="135" y="-6.5" width="110" height="30" as="geometry" />
        </mxCell>
        <mxCell id="9j5Bc3N9rgv02oG_bQQu-26" style="edgeStyle=orthogonalEdgeStyle;rounded=0;sketch=0;orthogonalLoop=1;jettySize=auto;html=1;entryX=0;entryY=0.5;entryDx=0;entryDy=0;startArrow=none;startFill=0;strokeWidth=1;" parent="1" source="9j5Bc3N9rgv02oG_bQQu-24" target="9j5Bc3N9rgv02oG_bQQu-29" edge="1">
          <mxGeometry x="30" y="40" as="geometry" />
        </mxCell>
        <mxCell id="JOMnKlJys3NHe0t_5HwK-2" value="&lt;div style=&quot;font-size: 8px&quot;&gt;digital - parallel&lt;/div&gt;&lt;div style=&quot;font-size: 8px&quot;&gt;(1 pin)&lt;br&gt;&lt;/div&gt;" style="text;html=1;strokeColor=none;fillColor=none;align=center;verticalAlign=middle;whiteSpace=wrap;rounded=0;fontSize=8;rotation=-90;" parent="1" vertex="1">
          <mxGeometry x="130" y="568" width="60" height="20" as="geometry" />
        </mxCell>
        <mxCell id="JOMnKlJys3NHe0t_5HwK-3" value="&lt;div style=&quot;font-size: 8px&quot;&gt;Digital Series&lt;/div&gt;&lt;div style=&quot;font-size: 8px&quot;&gt;(1 Pin)&lt;/div&gt;" style="text;html=1;strokeColor=none;fillColor=none;align=center;verticalAlign=middle;whiteSpace=wrap;rounded=0;fontSize=8;rotation=0;" parent="1" vertex="1">
          <mxGeometry x="110" y="620" width="60" height="20" as="geometry" />
        </mxCell>
        <mxCell id="J8ns3n-xOa6iXa_PQh_Z-14" value="&lt;span style=&quot;background-color: rgb(255, 255, 102);&quot;&gt;Manufacturer&lt;/span&gt;&lt;div&gt;&lt;span style=&quot;background-color: rgb(255, 255, 102);&quot;&gt;Part #&lt;/span&gt;&lt;/div&gt;&lt;div&gt;9V 1A&amp;nbsp; DC Battery Power Supply&lt;/div&gt;" style="rounded=0;whiteSpace=wrap;html=1;" parent="1" vertex="1">
          <mxGeometry x="0.5" y="850" width="129.5" height="60" as="geometry" />
        </mxCell>
        <mxCell id="aC57QmPyYTqG6Asludqg-6" style="edgeStyle=orthogonalEdgeStyle;rounded=0;orthogonalLoop=1;jettySize=auto;html=1;startArrow=classic;startFill=1;fontSize=8;entryX=0.615;entryY=0.994;entryDx=0;entryDy=0;entryPerimeter=0;endArrow=none;endFill=0;dashed=1;" parent="1" source="9j5Bc3N9rgv02oG_bQQu-49" target="9j5Bc3N9rgv02oG_bQQu-1" edge="1">
          <mxGeometry relative="1" as="geometry">
            <mxPoint x="470" y="290" as="targetPoint" />
          </mxGeometry>
        </mxCell>
        <mxCell id="aC57QmPyYTqG6Asludqg-7" style="edgeStyle=orthogonalEdgeStyle;rounded=0;orthogonalLoop=1;jettySize=auto;html=1;entryX=0.385;entryY=0.912;entryDx=0;entryDy=0;entryPerimeter=0;startArrow=none;startFill=0;fontSize=8;dashed=1;" parent="1" source="9j5Bc3N9rgv02oG_bQQu-42" target="9j5Bc3N9rgv02oG_bQQu-1" edge="1">
          <mxGeometry relative="1" as="geometry" />
        </mxCell>
        <mxCell id="aC57QmPyYTqG6Asludqg-8" value="&lt;div style=&quot;font-size: 16px&quot;&gt;&lt;b style=&quot;font-size: 16px&quot;&gt;Block Diagram -- Team 309: STEM Sparks&lt;/b&gt;&lt;/div&gt;&lt;div style=&quot;font-size: 16px&quot;&gt;Bruce Myers, Baron Guido, Aadish Lele, Shaurya Manglik&lt;/div&gt;" style="text;html=1;strokeColor=none;fillColor=none;align=center;verticalAlign=middle;whiteSpace=wrap;rounded=0;fontSize=16;" parent="1" vertex="1">
          <mxGeometry x="20" y="20" width="660" height="60" as="geometry" />
        </mxCell>
        <mxCell id="qvk3YT8bBgQgHgqkpW-t-4" value="&lt;div style=&quot;font-size: 8px&quot;&gt;Wireless (WiFi)&lt;/div&gt;" style="text;html=1;strokeColor=none;fillColor=none;align=center;verticalAlign=middle;whiteSpace=wrap;rounded=0;fontSize=8;rotation=0;" parent="1" vertex="1">
          <mxGeometry x="229" y="290" width="60" height="20" as="geometry" />
        </mxCell>
        <mxCell id="Jm0UklxG5w7mDhQz4Tn1-1" value="&lt;div style=&quot;font-size: 8px&quot;&gt;Wireless (WiFi)&lt;/div&gt;" style="text;html=1;strokeColor=none;fillColor=none;align=center;verticalAlign=middle;whiteSpace=wrap;rounded=0;fontSize=8;rotation=0;" parent="1" vertex="1">
          <mxGeometry x="350" y="290" width="60" height="20" as="geometry" />
        </mxCell>
        <mxCell id="kSPQpByRb165gBiSEDPV-2" value="" style="rounded=0;whiteSpace=wrap;html=1;" vertex="1" parent="1">
          <mxGeometry x="0.5" y="753" width="120" height="60" as="geometry" />
        </mxCell>
        <mxCell id="kSPQpByRb165gBiSEDPV-3" value="&lt;span style=&quot;background-color: rgb(255, 255, 51);&quot;&gt;Manufacturing Part #&lt;/span&gt;&lt;div&gt;3.3V 1A Switching Voltage Regulator&lt;/div&gt;" style="text;html=1;align=center;verticalAlign=middle;whiteSpace=wrap;rounded=0;" vertex="1" parent="1">
          <mxGeometry x="1" y="768" width="119.5" height="30" as="geometry" />
        </mxCell>
        <mxCell id="kSPQpByRb165gBiSEDPV-4" value="" style="rounded=0;whiteSpace=wrap;html=1;" vertex="1" parent="1">
          <mxGeometry x="1" y="640" width="120" height="60" as="geometry" />
        </mxCell>
        <mxCell id="kSPQpByRb165gBiSEDPV-5" value="&lt;div&gt;&lt;span style=&quot;background-color: rgb(255, 255, 51);&quot;&gt;Manifactuing Part #&lt;/span&gt;&lt;/div&gt;OLED" style="text;html=1;align=center;verticalAlign=middle;whiteSpace=wrap;rounded=0;" vertex="1" parent="1">
          <mxGeometry x="6.5" y="655" width="109" height="30" as="geometry" />
        </mxCell>
        <mxCell id="kSPQpByRb165gBiSEDPV-6" value="" style="rounded=0;whiteSpace=wrap;html=1;" vertex="1" parent="1">
          <mxGeometry x="816.5" y="410" width="120" height="60" as="geometry" />
        </mxCell>
        <mxCell id="kSPQpByRb165gBiSEDPV-7" value="ESP32 USB Programmer" style="text;html=1;align=center;verticalAlign=middle;whiteSpace=wrap;rounded=0;" vertex="1" parent="1">
          <mxGeometry x="846.5" y="425" width="63.5" height="30" as="geometry" />
        </mxCell>
        <mxCell id="kSPQpByRb165gBiSEDPV-10" style="edgeStyle=orthogonalEdgeStyle;rounded=0;orthogonalLoop=1;jettySize=auto;html=1;exitX=0;exitY=0.5;exitDx=0;exitDy=0;entryX=0.997;entryY=0.362;entryDx=0;entryDy=0;entryPerimeter=0;" edge="1" parent="1" source="kSPQpByRb165gBiSEDPV-6" target="9j5Bc3N9rgv02oG_bQQu-6">
          <mxGeometry relative="1" as="geometry" />
        </mxCell>
      </root>
    </mxGraphModel>
  </diagram>
</mxfile>
